<svg width="825" height="245" viewBox="0 0 825 245" fill="none" xmlns="http://www.w3.org/2000/svg">
<path d="M311.961 94.2301C325.506 125.161 338.925 155.733 352.444 186.533C349.326 188.229 346.807 187.727 344.414 187.746C336.419 187.809 328.419 187.63 320.429 187.83C317.068 187.914 315.424 186.695 314.18 183.562C311.112 175.835 307.516 168.321 304.33 160.639C302.882 157.147 300.88 155.599 296.834 155.67C279.19 155.978 261.54 155.602 243.895 156.425C240.292 156.593 238.537 157.898 237.224 161.032C234.01 168.705 230.531 176.267 227.18 183.883C226.285 185.919 225.418 187.798 222.653 187.775C212.661 187.69 202.667 187.71 192.675 187.647C192.073 187.643 191.473 187.256 190.993 187.089C190.183 185.067 191.325 183.642 191.975 182.182C211.992 137.166 232.068 92.1771 252.022 47.1336C253.377 44.073 255.11 42.9115 258.428 42.9854C267.086 43.1782 275.755 43.2236 284.409 42.9673C288.206 42.8548 290.1 44.388 291.536 47.7087C298.207 63.1379 305.052 78.4917 311.961 94.2301ZM260.294 129.039C268.287 129.035 276.28 129.049 284.273 129.023C289.778 129.006 290.209 128.411 288.17 123.315C283.845 112.507 279.485 101.713 275.072 90.9405C273.916 88.1196 272.514 85.3997 270.774 81.6653C263.881 97.8454 257.471 112.891 251.034 128.001C254.051 129.681 256.762 128.747 260.294 129.039Z" fill="#132742"/>
<path d="M509.35 166.394C509.349 153.398 509.39 140.902 509.337 128.407C509.285 116.079 502.409 108.74 491.048 108.757C477.683 108.777 469.079 116.529 469.058 128.67C469.027 146.497 468.937 164.326 469.157 182.15C469.211 186.525 467.906 188.037 463.483 187.853C455.999 187.542 448.49 187.664 440.996 187.823C437.601 187.894 436.299 186.731 436.306 183.219C436.394 136.402 436.386 89.586 436.355 42.7695C436.353 39.8633 436.997 38.2423 440.402 37.9008C449.627 36.9754 458.81 35.6378 468.723 34.3726C468.723 53.5553 468.723 72.1173 468.723 90.6594C471.531 91.1974 472.572 89.3685 473.937 88.384C491.457 75.7499 526.759 77.4439 538.037 103.075C540.482 108.631 541.939 114.444 541.983 120.447C542.136 141.105 541.95 161.766 542.121 182.424C542.156 186.579 540.787 187.969 536.678 187.833C529.022 187.581 521.351 187.672 513.689 187.793C510.483 187.844 509.226 186.612 509.319 183.387C509.477 177.893 509.354 172.392 509.35 166.394Z" fill="#132742"/>
<path d="M650.651 188.779C625.59 184.499 607.981 162.822 607.19 137.77C606.316 110.041 625.104 84.0917 657.028 80.3224C688.902 76.559 716.988 94.6949 721.531 125.431C725.975 155.505 711.109 181.823 678.86 188.601C669.685 190.529 660.358 190.418 650.651 188.779ZM678.638 158.898C680.384 157.371 682.298 155.995 683.85 154.29C691.928 145.414 692.697 130.453 685.747 119.459C679.81 110.066 667.686 105.882 656.311 109.47C645.885 112.759 640.876 120.772 639.353 130.878C637.715 141.743 640.601 151.51 649.883 158.224C658.854 164.712 668.415 164.561 678.638 158.898Z" fill="#132742"/>
<path d="M813.037 109.574C810.33 115.743 810.339 115.722 804.287 113.097C795.101 109.112 785.836 105.403 775.538 105.793C774.211 105.844 772.861 105.856 771.566 106.111C766.036 107.198 762.809 110.19 762.894 114.248C763.008 119.642 767.124 121.121 771.269 121.945C779.234 123.528 787.322 124.502 795.28 126.121C801.842 127.456 808.032 129.929 813.357 134.186C827.591 145.563 827.569 167.386 813.39 179.117C805.93 185.289 797.104 188.094 787.796 189.395C770.317 191.838 753.285 190.281 737.173 182.473C729.901 178.95 729.935 178.905 733.069 171.442C735.376 165.949 737.653 160.444 739.827 155.224C742.448 154.623 743.788 156.174 745.312 157.039C756.091 163.161 767.442 166.91 780.046 166.091C783.287 165.881 786.313 165.209 789.046 163.524C791.2 162.195 793.364 160.544 793.035 157.682C792.704 154.803 790.727 152.915 788 152.013C782.128 150.073 775.957 149.709 769.9 148.772C763.486 147.779 757.095 146.658 751.018 144.357C731.497 136.964 725.692 111.771 739.446 95.336C747.746 85.4186 758.855 81.386 771.018 80.2473C786.898 78.7605 802.13 81.6701 816.368 89.2715C819.496 90.9416 820.468 92.6114 818.884 95.9216C816.803 100.271 815.051 104.777 813.037 109.574Z" fill="#132742"/>
<path d="M393.008 121.412C393.023 131.239 393.026 140.57 393.053 149.9C393.075 157.901 396.829 161.783 404.897 162.015C409.059 162.134 413.229 162.118 417.392 162.031C420.006 161.976 421.376 162.652 421.245 165.698C420.987 171.686 421.098 177.689 421.026 183.686C421.003 185.53 421.088 187.416 418.46 187.727C406.522 189.142 394.492 190.22 382.773 186.985C365.43 182.197 361.007 170.523 360.459 154.993C359.984 141.514 360.215 128.003 360.431 114.511C360.497 110.342 359.566 108.581 354.952 108.634C343.353 108.77 343.351 108.554 343.35 97.0536C343.35 96.887 343.342 96.72 343.352 96.5539C343.575 92.5794 341.938 87.9525 344.061 84.7842C346.504 81.1373 351.461 83.4164 355.297 83.0735C357.953 82.8362 359.005 81.2566 359.978 79.234C364.021 70.831 368.206 62.4941 372.096 54.0216C373.744 50.4321 375.846 48.8358 380.055 48.9241C392.044 49.1758 392.048 48.9686 392.049 60.7489C392.049 66.747 392.174 72.7486 392.004 78.7419C391.912 82.0228 393.193 83.1909 396.41 83.0796C402.566 82.8667 408.744 83.1118 414.888 82.7475C418.042 82.5606 419.114 83.5605 419.064 86.5771C418.963 92.5735 418.913 98.5757 419.068 104.57C419.155 107.962 417.55 108.853 414.499 108.786C409.004 108.665 403.492 108.992 398.009 108.704C393.963 108.491 392.571 110.075 392.915 113.92C393.121 116.236 392.987 118.582 393.008 121.412Z" fill="#132742"/>
<path d="M560.35 73.3937C560.351 63.3949 560.489 53.8932 560.283 44.3989C560.205 40.7985 561.124 38.7324 565.001 38.4571C574.069 37.813 583.022 35.8568 591.978 35.8184C593.408 37.5029 593.006 39.2401 593.009 40.8561C593.068 72.1816 592.779 103.512 593.261 134.831C593.502 150.485 593.668 166.148 594.086 181.8C594.207 186.339 592.804 188.041 588.161 187.845C580.842 187.537 573.489 187.523 566.172 187.855C561.537 188.065 560.245 186.414 560.265 181.88C560.422 145.885 560.351 109.889 560.35 73.3937Z" fill="#132742"/>
<path d="M121.106 10.5619C152.469 1.1839 181.104 -1.09207 197.56 0.437165C197.846 1.31168 197.266 1.60223 196.607 1.76935C173.2 7.7001 153.504 20.3724 136.294 36.6818C98.9502 72.0713 68.4431 112.969 42.086 157.004C34.6086 169.496 29.4963 183.042 27.5263 197.604C27.1308 200.527 26.9461 203.479 26.6641 206.419C23.8016 206.897 22.4423 204.878 20.941 203.526C8.32627 192.165 1.76047 177.745 0.41734 161.01C-2.97799 118.704 14.6152 84.7329 43.3012 55.5179C64.9172 33.5033 91.5471 19.817 121.106 10.5619Z" fill="#F35C48"/>
<path d="M78.0212 177.613C73.529 193.967 73.8481 209.249 84.3648 223.065C87.314 226.939 90.7716 230.235 95.0427 232.691C96.8485 233.729 98.8436 234.708 100.225 237.163C95.2185 238.367 90.4298 237.948 85.7693 237.677C73.6333 236.97 61.5997 235.437 50.5614 229.783C38.6451 223.678 31.279 214.312 31.7367 200.493C32.0524 190.962 34.9487 181.871 39.1549 173.254C48.8322 153.428 62.2572 136.314 77.4015 120.464C100.733 96.0455 125.829 73.7654 155.288 56.8418C157.085 55.8094 158.741 54.2314 162.007 54.8577C157.382 59.5537 153.122 63.8207 148.925 68.1484C126.812 90.9502 106.818 115.388 91.6131 143.43C85.8073 154.137 81.373 165.457 78.0212 177.613Z" fill="#F35C48"/>
<path d="M131.993 229.085C139.082 235.253 147.223 239.063 155.436 243.2C154.79 243.892 154.485 244.51 154.171 244.514C136.394 244.758 118.7 243.848 103.333 233.628C88.3559 223.667 82.8517 208.733 84.1061 191.287C85.807 167.633 96.6762 147.796 110.904 129.495C111.79 128.356 112.463 126.842 114.785 126.956C113.369 133.283 111.826 139.502 110.601 145.784C107.687 160.725 106.648 175.8 109.391 190.841C112.179 206.128 120.003 218.688 131.993 229.085Z" fill="#F35C48"/>
</svg>
